<?xml version="1.0" standalone="no"?>
<!DOCTYPE svg PUBLIC "-//W3C//DTD SVG 20010904//EN"
 "http://www.w3.org/TR/2001/REC-SVG-20010904/DTD/svg10.dtd">
<svg version="1.0" xmlns="http://www.w3.org/2000/svg"
 width="260.000000pt" height="260.000000pt" viewBox="0 0 260.000000 260.000000"
 preserveAspectRatio="xMidYMid meet">
<metadata>
Created by potrace 1.11, written by Peter Selinger 2001-2013
</metadata>
<g transform="translate(0.000000,260.000000) scale(0.100000,-0.100000)"
fill="#000000" stroke="none">
<path d="M555 2050 c-3 -5 -1 -10 6 -10 19 0 1 -13 -24 -17 -12 -2 -25 -10
-30 -18 -4 -9 -12 -13 -18 -10 -5 4 -9 1 -9 -5 0 -6 -4 -9 -9 -5 -11 6 -62
-41 -53 -49 3 -3 -1 -6 -9 -6 -16 0 -63 -50 -65 -68 -1 -7 -2 -19 -2 -27 -1
-8 -8 -14 -14 -12 -7 1 -12 -4 -10 -12 3 -17 -17 -43 -29 -35 -5 3 -9 -65 -9
-155 0 -162 1 -168 35 -161 6 1 7 -2 3 -6 -4 -4 -2 -14 5 -22 10 -13 9 -15 -3
-8 -9 4 -8 2 2 -7 10 -8 15 -17 11 -20 -3 -4 -1 -7 5 -7 7 0 12 -12 12 -26 0
-21 4 -25 17 -20 10 4 14 4 11 0 -8 -8 16 -34 32 -34 6 0 8 -4 5 -10 -3 -5 3
-15 15 -22 11 -7 20 -20 20 -28 0 -13 1 -13 10 0 6 9 10 11 10 3 0 -7 7 -10
17 -6 9 4 14 2 10 -3 -3 -6 3 -16 15 -23 14 -9 18 -9 13 -1 -6 9 -2 9 14 1 11
-7 21 -16 21 -22 0 -6 6 -9 13 -6 6 2 20 0 31 -5 12 -7 16 -7 12 0 -3 5 6 9
23 8 15 0 28 -5 28 -11 -1 -60 4 -85 15 -79 8 5 9 2 5 -9 -3 -9 -2 -19 2 -22
5 -3 7 -13 4 -23 -2 -10 5 -26 16 -36 11 -10 17 -24 14 -32 -3 -9 0 -14 8 -12
7 2 14 -3 15 -9 1 -7 2 -18 3 -24 0 -5 6 -7 13 -3 8 5 9 2 5 -9 -4 -11 -1 -17
8 -17 8 0 15 -7 15 -15 0 -9 11 -20 25 -25 14 -5 25 -12 25 -15 0 -4 -6 -3
-12 1 -7 4 -4 -2 7 -13 11 -11 22 -19 24 -17 2 2 11 -5 20 -14 9 -10 14 -13
11 -7 -3 6 2 3 11 -7 9 -9 19 -14 23 -11 3 4 6 1 6 -5 0 -7 3 -11 8 -11 21 4
32 -2 26 -13 -5 -8 0 -7 11 2 11 9 16 10 11 3 -8 -14 -6 -15 39 -17 23 -1 30
-6 29 -21 -1 -19 7 -20 125 -21 119 -2 127 -1 128 17 1 12 -3 17 -9 13 -6 -4
-8 -3 -5 4 7 11 32 11 43 -1 4 -4 13 2 21 12 7 11 22 18 32 16 11 -2 22 3 25
10 3 8 14 12 25 10 12 -2 20 1 18 8 -1 7 8 12 19 11 13 0 20 5 17 12 -2 6 3
14 12 18 9 3 13 11 9 17 -5 8 -3 9 5 4 13 -8 54 28 44 39 -6 5 12 10 29 7 4 0
5 5 2 13 -8 21 39 45 51 26 3 -5 -4 -7 -15 -5 -11 2 -20 0 -20 -6 0 -5 5 -9
11 -9 8 0 7 -6 -2 -17 -10 -11 -10 -14 -1 -9 7 4 12 1 12 -9 0 -10 -5 -14 -12
-9 -10 6 -10 4 0 -7 6 -7 12 -20 12 -28 0 -19 64 -21 82 -3 14 14 20 44 7 36
-5 -3 -9 0 -9 5 0 6 6 11 13 11 7 0 8 3 2 8 -12 8 -16 114 -4 106 9 -5 4 30
-6 46 -3 6 -2 10 4 10 6 0 8 8 5 18 -5 13 -4 14 4 3 5 -7 14 -11 20 -7 6 4 8
-2 5 -14 -3 -13 0 -20 8 -20 11 0 11 -2 -1 -10 -12 -8 -12 -10 -1 -10 9 0 12
-8 9 -24 -4 -19 -1 -23 10 -18 11 4 14 1 9 -11 -3 -9 0 -23 8 -30 11 -11 11
-17 2 -27 -9 -10 -9 -11 1 -6 8 5 12 0 12 -13 0 -13 7 -21 18 -21 14 0 15 -2
2 -10 -11 -7 -11 -10 -2 -10 7 0 10 -4 7 -10 -9 -14 21 -16 74 -4 13 3 21 8
17 11 -3 3 2 12 12 20 9 8 11 11 3 7 -11 -5 -13 -3 -8 10 4 10 7 20 7 22 0 3
6 2 13 -2 9 -6 9 -4 -1 8 -11 14 -10 18 5 27 10 6 14 11 9 11 -4 0 -1 12 9 26
9 14 14 28 11 32 -3 3 1 16 9 29 12 17 12 23 3 23 -8 0 -5 5 5 11 9 6 15 14
12 19 -3 4 3 6 13 3 16 -4 26 -43 11 -43 -9 0 -6 -21 5 -39 7 -11 6 -12 -5 -6
-12 8 -12 6 0 -8 9 -11 10 -17 2 -17 -13 0 -10 -22 4 -32 6 -5 5 -8 -2 -8 -7
0 -10 -7 -6 -17 5 -12 3 -14 -8 -9 -8 4 -5 0 5 -8 15 -12 16 -16 5 -16 -12 0
-12 -2 1 -10 13 -9 13 -10 0 -10 -13 0 -13 -1 0 -10 14 -9 7 -15 -14 -11 -5 1
-4 -5 3 -13 10 -12 18 -13 33 -5 15 8 19 8 14 0 -4 -6 0 -11 9 -11 10 0 13 5
9 13 -5 7 0 6 11 -3 11 -9 16 -10 11 -2 -4 7 -1 15 8 18 9 3 16 10 16 16 0 5
-4 7 -8 4 -5 -3 -9 1 -9 9 0 8 7 17 15 20 12 4 12 8 1 21 -7 8 -12 39 -12 69
0 33 -4 52 -10 48 -6 -4 -7 -1 -1 8 15 24 16 62 2 71 -9 7 -7 8 8 5 13 -3 21
1 21 9 0 7 -4 11 -8 9 -11 -7 -15 15 -14 80 0 33 -4 64 -10 68 -6 6 -4 7 6 4
12 -4 15 0 11 20 -3 18 -7 21 -13 11 -8 -12 -13 -5 -10 14 0 3 -14 2 -32 -3
-40 -11 -39 -11 -32 4 4 6 -1 3 -9 -7 -9 -11 -16 -24 -16 -29 0 -4 -4 -5 -10
-2 -6 4 -7 -1 -3 -11 5 -13 3 -15 -8 -9 -8 4 -11 4 -6 0 4 -5 -1 -18 -10 -29
-15 -18 -16 -19 -1 -8 14 11 16 11 11 -7 -3 -12 -9 -21 -14 -21 -5 0 -9 -9 -9
-21 0 -11 -4 -18 -9 -15 -5 4 -8 -2 -7 -11 2 -10 -4 -24 -13 -31 -9 -8 -10
-10 -2 -6 9 4 12 2 9 -7 -3 -8 -11 -13 -18 -11 -11 2 -11 0 -1 -12 9 -11 9
-16 0 -22 -8 -5 -9 -3 -4 6 5 9 4 11 -4 6 -9 -6 -9 -11 0 -22 9 -11 8 -14 -5
-14 -9 0 -16 -5 -16 -11 0 -5 4 -7 10 -4 6 3 7 -1 4 -9 -3 -9 -10 -14 -14 -11
-5 3 -6 -3 -3 -14 3 -11 -2 -21 -11 -24 -9 -4 -16 -1 -16 6 0 8 -4 6 -10 -3
-5 -8 -10 -10 -10 -4 0 5 6 16 13 23 10 11 10 13 0 7 -9 -5 -13 1 -13 18 0 14
-5 26 -11 26 -5 0 -7 5 -4 10 3 6 2 10 -3 10 -6 0 -8 9 -5 20 4 14 0 20 -11
20 -10 0 -13 6 -10 15 4 9 0 15 -7 15 -11 0 -11 3 1 10 9 6 10 10 3 10 -7 0
-17 10 -24 21 -8 15 -8 19 0 15 13 -9 -2 36 -23 66 -8 11 -12 27 -9 36 4 10 2
13 -5 8 -7 -4 -12 -1 -12 8 0 14 -26 22 -55 16 -5 -1 -1 8 10 20 13 14 14 19
4 15 -11 -4 -15 3 -17 26 -1 18 -10 38 -20 45 -11 9 -13 13 -4 14 7 0 10 5 7
10 -4 6 -11 7 -17 4 -6 -4 -8 -3 -5 3 9 14 -15 63 -31 63 -7 0 -10 5 -7 10 3
6 1 10 -6 10 -7 0 -9 3 -6 6 7 7 -30 44 -44 44 -5 0 -6 7 -3 15 5 11 2 13 -10
9 -10 -4 -18 0 -22 10 -3 9 -12 16 -20 16 -8 0 -14 5 -14 11 0 6 -7 9 -14 6
-11 -4 -13 -1 -9 10 4 11 2 14 -5 9 -7 -4 -12 -2 -12 4 0 6 -4 8 -10 5 -5 -3
-10 -1 -10 6 0 8 -5 7 -17 -2 -9 -8 -14 -9 -11 -4 9 16 -15 31 -49 31 -18 0
-41 9 -52 19 -19 16 -21 16 -27 1 -6 -15 -7 -15 -20 1 -11 15 -13 15 -14 3 0
-9 -3 -11 -8 -5 -10 15 -35 18 -26 4 5 -9 2 -10 -10 -6 -10 4 -21 7 -26 7 -5
0 -12 9 -15 20 -4 11 -10 18 -14 15 -5 -2 -8 5 -7 18 1 13 -4 21 -12 19 -9 -2
-12 6 -10 25 2 20 -3 30 -20 39 -13 6 -22 15 -21 20 1 5 -9 15 -22 21 -13 7
-21 13 -17 13 4 0 -4 12 -17 26 -13 14 -29 23 -34 19 -6 -3 -11 -1 -11 6 0 7
-3 9 -6 6 -4 -4 -15 3 -25 14 -12 14 -19 16 -24 8 -6 -8 -10 -7 -16 2 -12 20
-11 31 3 23 6 -4 8 -3 4 4 -8 14 -322 17 -331 2z m1492 -936 c-3 -3 -12 -4
-19 -1 -8 3 -5 6 6 6 11 1 17 -2 13 -5z m90 -210 c-3 -3 -12 -4 -19 -1 -8 3
-5 6 6 6 11 1 17 -2 13 -5z m-852 -184 c3 -5 1 -10 -4 -10 -6 0 -11 5 -11 10
0 6 2 10 4 10 3 0 8 -4 11 -10z"/>
<path d="M1295 1740 c3 -5 8 -10 11 -10 2 0 4 5 4 10 0 6 -5 10 -11 10 -5 0
-7 -4 -4 -10z"/>
<path d="M2135 1261 c-3 -5 0 -13 6 -17 7 -4 9 -3 5 4 -3 5 0 13 6 15 9 4 10
6 1 6 -6 1 -14 -3 -18 -8z"/>
<path d="M2134 1195 c3 -23 12 -26 13 -5 1 11 -2 20 -7 20 -4 0 -7 -7 -6 -15z"/>
<path d="M2015 1070 c-3 -5 -1 -10 4 -10 6 0 11 5 11 10 0 6 -2 10 -4 10 -3 0
-8 -4 -11 -10z"/>
<path d="M2130 1066 c0 -2 7 -7 16 -10 8 -3 12 -2 9 4 -6 10 -25 14 -25 6z"/>
<path d="M1029 723 c-13 -16 -12 -17 4 -4 9 7 17 15 17 17 0 8 -8 3 -21 -13z"/>
</g>
</svg>
